[Header]
FileType HTR
DataType HTRS
FileVersion 1
NumSegments 64
NumFrames 3
DataFrameRate 24
EulerRotationOrder ZYX
CalibrationUnits mm
RotationUnits Degrees
GlobalAxisofGravity Y
BoneLengthAxis Y
ScaleFactor 1.0
[SegmentNames&Hierarchy]
Hips	GLOBAL
Spine	Hips
Spine1	Spine
Spine2	Spine1
Neck	Spine2
Head	Neck
LeftEye	Head
RightEye	Head
LeftShoulder	Spine2
LeftArm	LeftShoulder
LeftForeArm	LeftArm
LeftHand	LeftForeArm
LeftHandThumb1	LeftHand
LeftHandThumb2	LeftHandThumb1
LeftHandThumb3	LeftHandThumb2
LeftHandThumb4	LeftHandThumb3
LeftHandIndex1	LeftHand
LeftHandIndex2	LeftHandIndex1
LeftHandIndex3	LeftHandIndex2
LeftHandIndex4	LeftHandIndex3
LeftHandMiddle1	LeftHand
LeftHandMiddle2	LeftHandMiddle1
LeftHandMiddle3	LeftHandMiddle2
LeftHandMiddle4	LeftHandMiddle3
LeftHandRing1	LeftHand
LeftHandRing2	LeftHandRing1
LeftHandRing3	LeftHandRing2
LeftHandRing4	LeftHandRing3
LeftHandPinky1	LeftHand
LeftHandPinky2	LeftHandPinky1
LeftHandPinky3	LeftHandPinky2
LeftHandPinky4	LeftHandPinky3
RightShoulder	Spine2
RightArm	RightShoulder
RightForeArm	RightArm
RightHand	RightForeArm
RightHandPinky1	RightHand
RightHandPinky2	RightHandPinky1
RightHandPinky3	RightHandPinky2
RightHandPinky4	RightHandPinky3
RightHandRing1	RightHand
RightHandRing2	RightHandRing1
RightHandRing3	RightHandRing2
RightHandRing4	RightHandRing3
RightHandMiddle1	RightHand
RightHandMiddle2	RightHandMiddle1
RightHandMiddle3	RightHandMiddle2
RightHandMiddle4	RightHandMiddle3
RightHandIndex1	RightHand
RightHandIndex2	RightHandIndex1
RightHandIndex3	RightHandIndex2
RightHandIndex4	RightHandIndex3
RightHandThumb1	RightHand
RightHandThumb2	RightHandThumb1
RightHandThumb3	RightHandThumb2
RightHandThumb4	RightHandThumb3
LeftUpLeg	Hips
LeftLeg	LeftUpLeg
LeftFoot	LeftLeg
LeftToeBase	LeftFoot
RightUpLeg	Hips
RightLeg	RightUpLeg
RightFoot	RightLeg
RightToeBase	RightFoot
[BasePosition]
Hips	0	0	0	0	0	0	1
Spine	0	0	0	0	0	0	1
Spine1	0	0	0	0	0	0	1
Spine2	0	0	0	0	0	0	1
Neck	0	0	0	0	0	0	1
Head	0	0	0	0	0	0	1
LeftEye	0	0	0	0	0	0	1
RightEye	0	0	0	0	0	0	1
LeftShoulder	0	0	0	0	0	0	1
LeftArm	0	0	0	0	0	0	1
LeftForeArm	0	0	0	0	0	0	1
LeftHand	0	0	0	0	0	0	1
LeftHandThumb1	0	0	0	0	0	0	1
LeftHandThumb2	0	0	0	0	0	0	1
LeftHandThumb3	0	0	0	0	0	0	1
LeftHandThumb4	0	0	0	0	0	0	1
LeftHandIndex1	0	0	0	0	0	0	1
LeftHandIndex2	0	0	0	0	0	0	1
LeftHandIndex3	0	0	0	0	0	0	1
LeftHandIndex4	0	0	0	0	0	0	1
LeftHandMiddle1	0	0	0	0	0	0	1
LeftHandMiddle2	0	0	0	0	0	0	1
LeftHandMiddle3	0	0	0	0	0	0	1
LeftHandMiddle4	0	0	0	0	0	0	1
LeftHandRing1	0	0	0	0	0	0	1
LeftHandRing2	0	0	0	0	0	0	1
LeftHandRing3	0	0	0	0	0	0	1
LeftHandRing4	0	0	0	0	0	0	1
LeftHandPinky1	0	0	0	0	0	0	1
LeftHandPinky2	0	0	0	0	0	0	1
LeftHandPinky3	0	0	0	0	0	0	1
LeftHandPinky4	0	0	0	0	0	0	1
RightShoulder	0	0	0	0	0	0	1
RightArm	0	0	0	0	0	0	1
RightForeArm	0	0	0	0	0	0	1
RightHand	0	0	0	0	0	0	1
RightHandPinky1	0	0	0	0	0	0	1
RightHandPinky2	0	0	0	0	0	0	1
RightHandPinky3	0	0	0	0	0	0	1
RightHandPinky4	0	0	0	0	0	0	1
RightHandRing1	0	0	0	0	0	0	1
RightHandRing2	0	0	0	0	0	0	1
RightHandRing3	0	0	0	0	0	0	1
RightHandRing4	0	0	0	0	0	0	1
RightHandMiddle1	0	0	0	0	0	0	1
RightHandMiddle2	0	0	0	0	0	0	1
RightHandMiddle3	0	0	0	0	0	0	1
RightHandMiddle4	0	0	0	0	0	0	1
RightHandIndex1	0	0	0	0	0	0	1
RightHandIndex2	0	0	0	0	0	0	1
RightHandIndex3	0	0	0	0	0	0	1
RightHandIndex4	0	0	0	0	0	0	1
RightHandThumb1	0	0	0	0	0	0	1
RightHandThumb2	0	0	0	0	0	0	1
RightHandThumb3	0	0	0	0	0	0	1
RightHandThumb4	0	0	0	0	0	0	1
LeftUpLeg	0	0	0	0	0	0	1
LeftLeg	0	0	0	0	0	0	1
LeftFoot	0	0	0	0	0	0	1
LeftToeBase	0	0	0	0	0	0	1
RightUpLeg	0	0	0	0	0	0	1
RightLeg	0	0	0	0	0	0	1
RightFoot	0	0	0	0	0	0	1
RightToeBase	0	0	0	0	0	0	1
[Hips]
15	-30.48117447	1011.643066	-95.67843628	-6.577110767	46.27441788	-7.836591721	1.0
16	-18.98325539	1012.887878	-107.4017792	-7.19751358	49.4633522	-8.265725136	1.0
17	-5.802328587	1014.114502	-116.9914932	-7.901899338	52.65102386	-8.786092758	1.0
[Spine]
15	0	101.8159943	1.315000057	1.260531902	1.896643758	2.059573889	1.0
16	0	101.8159943	1.315000057	1.313929677	1.082806945	2.167199135	1.0
17	0	101.8159943	1.315000057	1.382071614	0.1274176985	2.325344324	1.0
[Spine1]
15	0	100.8349991	-10.00800037	1.182285309	4.033240795	4.969480991	1.0
16	0	100.8349991	-10.00800037	1.094943881	2.691110849	4.790223598	1.0
17	0	100.8349991	-10.00800037	1.009317517	1.27409184	4.593267441	1.0
[Spine2]
15	0	91	-13.73399925	1.487392068	4.499882221	4.838879108	1.0
16	0	91	-13.73399925	1.288121462	3.164916754	4.673206806	1.0
17	0	91	-13.73399925	1.086428881	1.754555583	4.494218826	1.0
[Neck]
15	0	166.7169952	-25.16200066	0.2848688066	5.044229031	-5.480845928	1.0
16	0	166.7169952	-25.16200066	0.6796984076	5.41488266	-4.744755745	1.0
17	0	166.7169952	-25.16200066	1.196608901	5.912247658	-4.001671314	1.0
[Head]
15	0	96.17900085	16.84999847	-6.798916817	13.08780861	-17.58680344	1.0
16	0	96.17900085	16.84999847	-6.791984081	15.9141407	-18.48303604	1.0
17	0	96.17900085	16.84999847	-6.616666794	18.36948395	-18.9479847	1.0
[LeftEye]
15	30.6760006	64.09500122	92.83599854	0	0	0	1.0
16	30.6760006	64.09500122	92.83599854	0	0	0	1.0
17	30.6760006	64.09500122	92.83599854	0	0	0	1.0
[RightEye]
15	-30.6760006	64.09500122	92.83499908	0	0	0	1.0
16	-30.6760006	64.09500122	92.83499908	0	0	0	1.0
17	-30.6760006	64.09500122	92.83499908	0	0	0	1.0
[LeftShoulder]
15	45.70400238	109.4599991	-26.28000069	4.806468964	-13.64231873	-5.664143085	1.0
16	45.70400238	109.4599991	-26.28000069	4.678215504	-13.16173553	-4.941837788	1.0
17	45.70400238	109.4599991	-26.28000069	4.594434738	-12.20872498	-4.279736996	1.0
[LeftArm]
15	105.923996	-5.24600029	-22.32099915	-9.183656693	5.968773365	-88.18740082	1.0
16	105.923996	-5.24600029	-22.32099915	-7.697809219	6.74440527	-89.73078918	1.0
17	105.923996	-5.24600029	-22.32099915	-5.69742918	7.947006702	-90.8563385	1.0
[LeftForeArm]
15	278.414978	-0.0009999999311	0	-9.219992876e-07	-6.466346741	-0.0002084995795	1.0
16	278.414978	-0.0009999999311	0	-6.115226938e-07	-4.951958656	-0.0002127354819	1.0
17	278.414978	-0.0009999999311	0	4.020310769e-07	-4.56827879	-0.0001957490167	1.0
[LeftHand]
15	283.2879944	0	0	-21.99429321	-1.702566981	-14.01731205	1.0
16	283.2879944	0	0	-21.16995049	0.1654206216	-16.58454895	1.0
17	283.2879944	0	0	-20.87759209	1.165854454	-18.46827126	1.0
[LeftHandThumb1]
15	24.6609993	-15.75	26.8239994	18.64242935	-2.263624907	10.25784206	1.0
16	24.6609993	-15.75	26.8239994	18.85425186	-0.7351202369	10.50766563	1.0
17	24.6609993	-15.75	26.8239994	19.24133301	0.1165166125	10.54957581	1.0
[LeftHandThumb2]
15	32.29800034	-18.64699936	18.64699936	-0.4408167899	31.67189789	-3.065988779	1.0
16	32.29800034	-18.64699936	18.64699936	-0.4274249375	30.90673065	-3.210773468	1.0
17	32.29800034	-18.64699936	18.64699936	-0.3842819631	30.23108864	-3.1620543	1.0
[LeftHandThumb3]
15	26.52600098	-15.31499958	15.31499958	2.068926573	8.781477928	0.2920167446	1.0
16	26.52600098	-15.31499958	15.31499958	2.059324741	8.543456078	0.5053778887	1.0
17	26.52600098	-15.31499958	15.31499958	2.054587841	8.400653839	0.5739272237	1.0
[LeftHandThumb4]
15	19.54599953	-11.28499985	11.28499985	0	0	0	1.0
16	19.54599953	-11.28499985	11.28499985	0	0	0	1.0
17	19.54599953	-11.28499985	11.28499985	0	0	0	1.0
[LeftHandIndex1]
15	91.09299469	-5.170999527	22.60099792	0.03423286974	4.671414852	-5.700276375	1.0
16	91.09299469	-5.170999527	22.60099792	0.2511655688	4.408671379	-3.401315451	1.0
17	91.09299469	-5.170999527	22.60099792	0.377818346	4.230517387	-1.961230516	1.0
[LeftHandIndex2]
15	36.76399994	0	0	-0.6318668127	2.777144432	-20.64791679	1.0
16	36.76399994	0	0	-0.6356431842	2.784124374	-20.72599411	1.0
17	36.76399994	0	0	-0.6369117498	2.786412001	-20.75181198	1.0
[LeftHandIndex3]
15	28.83100128	0	0	-0.1110726446	0.8129488826	-10.24534893	1.0
16	28.83100128	0	0	-0.1124714538	0.8206548095	-10.32323837	1.0
17	28.83100128	0	0	-0.1129404306	0.8232043982	-10.34903526	1.0
[LeftHandIndex4]
15	23.92700005	0	0	0	0	0	1.0
16	23.92700005	0	0	0	0	0	1.0
17	23.92700005	0	0	0	0	0	1.0
[LeftHandMiddle1]
15	95.33399963	0	0	-1.368703604	9.020749092	-14.5672121	1.0
16	95.33399963	0	0	-1.189478993	9.087273598	-13.0304594	1.0
17	95.33399963	0	0	-1.079736948	9.106920242	-12.07835102	1.0
[LeftHandMiddle2]
15	36.98199844	0	0	-1.422540426	3.818691492	-33.35441208	1.0
16	36.98199844	0	0	-1.417631865	3.813356161	-33.28268051	1.0
17	36.98199844	0	0	-1.412930369	3.808192968	-33.21366882	1.0
[LeftHandMiddle3]
15	29.50900078	0	0	-0.1477570236	1.48028779	-12.209548	1.0
16	29.50900078	0	0	-0.1462041587	1.473711014	-12.14162731	1.0
17	29.50900078	0	0	-0.144686237	1.467252374	-12.07485008	1.0
[LeftHandMiddle4]
15	28.3390007	0	0	0	0	0	1.0
16	28.3390007	0	0	0	0	0	1.0
17	28.3390007	0	0	0	0	0	1.0
[LeftHandRing1]
15	91.04499817	-0.4390000105	-18.65100098	-2.880441904	11.49166489	-25.87752724	1.0
16	91.04499817	-0.4390000105	-18.65100098	-2.718162537	11.6264677	-24.56289101	1.0
17	91.04499817	-0.4390000105	-18.65100098	-2.613526821	11.73154926	-23.70243454	1.0
[LeftHandRing2]
15	31.54000092	0	0	-1.190456629	4.046535492	-40.08623123	1.0
16	31.54000092	0	0	-1.188506722	4.044004917	-40.05412292	1.0
17	31.54000092	0	0	-1.186211228	4.041057587	-40.01625824	1.0
[LeftHandRing3]
15	29.37700081	0	0	-0.08954578638	1.892251134	-19.22289276	1.0
16	29.37700081	0	0	-0.08887881786	1.889523387	-19.19455338	1.0
17	29.37700081	0	0	-0.08805760741	1.886147499	-19.15954971	1.0
[LeftHandRing4]
15	26.47500038	0	0	0	0	0	1.0
16	26.47500038	0	0	0	0	0	1.0
17	26.47500038	0	0	0	0	0	1.0
[LeftHandPinky1]
15	80.77799988	-4.887000084	-38.06099701	-5.183179379	16.5986042	-36.1096611	1.0
16	80.77799988	-4.887000084	-38.06099701	-5.005868912	16.53330612	-34.87056732	1.0
17	80.77799988	-4.887000084	-38.06099701	-4.882089138	16.43935776	-34.05422974	1.0
[LeftHandPinky2]
15	36	0	0	-1.953662872	3.82452631	-45.77045441	1.0
16	36	0	0	-1.964470267	3.833928585	-45.91386414	1.0
17	36	0	0	-1.967684031	3.836702347	-45.95656967	1.0
[LeftHandPinky3]
15	21.14200211	0	0	-0.5479705334	2.843440294	-20.63429451	1.0
16	21.14200211	0	0	-0.5541564822	2.856339693	-20.77728653	1.0
17	21.14200211	0	0	-0.5560118556	2.860187769	-20.81986427	1.0
[LeftHandPinky4]
15	19.75699997	0	0	0	0	0	1.0
16	19.75699997	0	0	0	0	0	1.0
17	19.75699997	0	0	0	0	0	1.0
[RightShoulder]
15	-45.70000076	109.4620056	-26.28000069	4.727196693	3.433658123	4.562351227	1.0
16	-45.70000076	109.4620056	-26.28000069	4.739954948	3.709657669	4.741553783	1.0
17	-45.70000076	109.4620056	-26.28000069	4.742519855	3.930112362	4.757595062	1.0
[RightArm]
15	-105.9280014	-5.248000145	-22.32099915	-1.538795948	-1.813747525	66.46893311	1.0
16	-105.9280014	-5.248000145	-22.32099915	-1.813112974	-0.9532145858	65.59360504	1.0
17	-105.9280014	-5.248000145	-22.32099915	-1.906854153	-0.3531873822	64.9672699	1.0
[RightForeArm]
15	-278.414978	0	0	1.799533152e-06	17.70023155	6.505678357e-06	1.0
16	-278.414978	0	0	-3.296788691e-06	18.52387047	-2.741629578e-05	1.0
17	-278.414978	0	0	3.817135052e-07	19.41296768	-6.533721717e-06	1.0
[RightHand]
15	-283.2879944	0	0.0009999999311	-12.61845875	-3.067212343	7.281424046	1.0
16	-283.2879944	0	0.0009999999311	-12.89136124	-1.466963172	5.055625439	1.0
17	-283.2879944	0	0.0009999999311	-13.13502598	-0.2877041399	3.455800056	1.0
[RightHandPinky1]
15	-80.76699829	-4.885000229	-38.06000137	-5.184344292	-15.88047886	36.77403259	1.0
16	-80.76699829	-4.885000229	-38.06000137	-5.184978485	-15.81945896	36.81113052	1.0
17	-80.76699829	-4.885000229	-38.06000137	-5.228785992	-15.68238449	37.20284271	1.0
[RightHandPinky2]
15	-36	0	0.0009999999311	-1.93680501	-3.809324503	45.5643692	1.0
16	-36	0	0.0009999999311	-1.93348515	-3.806441784	45.52006149	1.0
17	-36	0	0.0009999999311	-1.929959655	-3.803298712	45.47292709	1.0
[RightHandPinky3]
15	-21.14200211	0	0	-0.760966897	0.0635503158	22.02572632	1.0
16	-21.14200211	0	0	-0.7589564323	0.06751394272	21.98164558	1.0
17	-21.14200211	0	0	-0.7568364143	0.07169000059	21.93473816	1.0
[RightHandPinky4]
15	-19.75699997	0	0	0	0	0	1.0
16	-19.75699997	0	0	0	0	0	1.0
17	-19.75699997	0	0	0	0	0	1.0
[RightHandRing1]
15	-91.03599548	-0.4390000105	-18.65100098	-3.008556128	-11.484272	26.86997414	1.0
16	-91.03599548	-0.4390000105	-18.65100098	-3.009805441	-11.46944904	26.88514137	1.0
17	-91.03599548	-0.4390000105	-18.65100098	-3.057753801	-11.43261814	27.26703453	1.0
[RightHandRing2]
15	-31.54000092	0	0	-1.197632551	-4.055443764	40.20716476	1.0
16	-31.54000092	0	0	-1.195010066	-4.052067757	40.16397858	1.0
17	-31.54000092	0	0	-1.192606211	-4.048998356	40.12446976	1.0
[RightHandRing3]
15	-29.37700081	0	0	-0.1383804977	0.08971770108	17.81874466	1.0
16	-29.37700081	0	0	-0.1374758482	0.09392781556	17.7752552	1.0
17	-29.37700081	0	0	-0.1366123408	0.09793710709	17.73420334	1.0
[RightHandRing4]
15	-26.47500038	0	0	0	0	0	1.0
16	-26.47500038	0	0	0	0	0	1.0
17	-26.47500038	0	0	0	0	0	1.0
[RightHandMiddle1]
15	-95.32500458	0	0	-1.509589076	-8.642227173	15.78274059	1.0
16	-95.32500458	0	0	-1.515479922	-8.634883881	15.83246422	1.0
17	-95.32500458	0	0	-1.562945247	-8.684624672	16.22439384	1.0
[RightHandMiddle2]
15	-36.98199844	0	0	-1.432261825	-3.828920841	33.4981041	1.0
16	-36.98199844	0	0	-1.430332065	-3.826839924	33.47005844	1.0
17	-36.98199844	0	0	-1.431122184	-3.827668428	33.4814949	1.0
[RightHandMiddle3]
15	-29.50900078	0	0	-0.2557649016	-1.685770869	15.97859097	1.0
16	-29.50900078	0	0	-0.2549469471	-1.683097482	15.95035267	1.0
17	-29.50900078	0	0	-0.2552947402	-1.684242487	15.96231365	1.0
[RightHandMiddle4]
15	-28.3390007	0	0.0009999999311	0	0	0	1.0
16	-28.3390007	0	0.0009999999311	0	0	0	1.0
17	-28.3390007	0	0.0009999999311	0	0	0	1.0
[RightHandIndex1]
15	-91.08300018	-5.167999744	22.60099792	-0.2912425399	-4.68486166	7.788000107	1.0
16	-91.08300018	-5.167999744	22.60099792	-0.3034894466	-4.6421175	7.81744957	1.0
17	-91.08300018	-5.167999744	22.60099792	-0.3525605798	-4.658549786	8.229258537	1.0
[RightHandIndex2]
15	-36.76399994	0	0	-0.6243636608	-2.763109207	20.49394798	1.0
16	-36.76399994	0	0	-0.6232873797	-2.761112452	20.47150612	1.0
17	-36.76399994	0	0	-0.6246712804	-2.763664484	20.50039101	1.0
[RightHandIndex3]
15	-28.83100128	0	0	-0.2366114259	-0.1497463584	13.76567364	1.0
16	-28.83100128	0	0	-0.2360729575	-0.1475680619	13.74328232	1.0
17	-28.83100128	0	0	-0.236769408	-0.1503858566	13.77206135	1.0
[RightHandIndex4]
15	-23.92700005	0	0	0	0	0	1.0
16	-23.92700005	0	0	0	0	0	1.0
17	-23.92700005	0	0	0	0	0	1.0
[RightHandThumb1]
15	-24.64799881	-15.72700024	26.82600021	17.85109901	4.353585243	-10.12269306	1.0
16	-24.64799881	-15.72700024	26.82600021	17.83071899	4.47200489	-10.05553532	1.0
17	-24.64799881	-15.72700024	26.82600021	17.68975639	4.934152126	-9.854454994	1.0
[RightHandThumb2]
15	-32.29800034	-18.64699936	18.64699936	-0.8103786111	-32.82479858	3.023565292	1.0
16	-32.29800034	-18.64699936	18.64699936	-0.9071470499	-32.85182953	3.05521512	1.0
17	-32.29800034	-18.64699936	18.64699936	-1.117780209	-33.13588715	3.190454245	1.0
[RightHandThumb3]
15	-26.52600098	-15.31399918	15.31399918	1.888952136	-8.538988113	0.8499693871	1.0
16	-26.52600098	-15.31399918	15.31399918	1.882894158	-8.518947601	0.8445794582	1.0
17	-26.52600098	-15.31399918	15.31399918	1.871959329	-8.482894897	0.8348658085	1.0
[RightHandThumb4]
15	-19.54599953	-11.28499985	11.28499985	0	0	0	1.0
16	-19.54599953	-11.28499985	11.28499985	0	0	0	1.0
17	-19.54599953	-11.28499985	11.28499985	0	0	0	1.0
[LeftUpLeg]
15	82.07800293	-67.51699829	-15.99599934	-16.59438324	35.98796844	9.400735855	1.0
16	82.07800293	-67.51699829	-15.99599934	-17.71782112	39.25011826	6.418321609	1.0
17	82.07800293	-67.51699829	-15.99599934	-17.84542465	41.61580658	4.893877506	1.0
[LeftLeg]
15	0	-443.7049866	2.845999956	32.17679596	-2.408695459	-0.2229712158	1.0
16	0	-443.7049866	2.845999956	30.51168442	-2.049506187	2.931937933	1.0
17	0	-443.7049866	2.845999956	29.0961647	0.2656063437	4.68528986	1.0
[LeftFoot]
15	0	-444.2789917	-29.8219986	-13.64454651	20.1554966	-4.718837738	1.0
16	0	-444.2789917	-29.8219986	-12.43355083	20.20019722	-6.154219627	1.0
17	0	-444.2789917	-29.8219986	-11.57318974	18.58095551	-6.547763348	1.0
[LeftToeBase]
15	0	-87.28699493	107.1060028	-0.3817964196	-5.644018984e-06	-1.752162689e-06	1.0
16	0	-87.28699493	107.1060028	-1.276560307	6.457656127e-06	-2.953919136e-07	1.0
17	0	-87.28699493	107.1060028	-0.4534164369	2.135603972e-05	2.287466714e-06	1.0
[RightUpLeg]
15	-82.07800293	-67.51699829	-15.99599934	-14.37831116	-5.804545403	14.23382854	1.0
16	-82.07800293	-67.51699829	-15.99599934	-14.60425949	-7.484319687	12.14112377	1.0
17	-82.07800293	-67.51699829	-15.99599934	-14.09761906	-9.675218582	8.837843895	1.0
[RightLeg]
15	0	-443.7049866	2.861999989	17.85414314	-8.017027855	-6.72918272	1.0
16	0	-443.7049866	2.861999989	18.80422974	-8.34197998	-5.421620846	1.0
17	0	-443.7049866	2.861999989	19.28425407	-9.650371552	-1.732310653	1.0
[RightFoot]
15	0	-444.2770081	-29.83799934	-4.1702981	-30.38095093	-3.013602257	1.0
16	0	-444.2770081	-29.83799934	-4.935019016	-30.35419464	-1.853444815	1.0
17	0	-444.2770081	-29.83799934	-5.960447788	-30.52381325	-1.761474609	1.0
[RightToeBase]
15	0	-87.28699493	107.1060028	-0.3597452939	1.36308081e-05	3.610487056e-07	1.0
16	0	-87.28699493	107.1060028	-0.2771437466	-1.49224627e-06	-2.08190113e-06	1.0
17	0	-87.28699493	107.1060028	-0.7339310646	8.795125723e-06	8.967237477e-07	1.0
[EndOfFile]
